<?xml version="1.0" encoding="UTF-8" standalone="no"?>
<!DOCTYPE svg PUBLIC "-//W3C//DTD SVG 1.1//EN" "http://www.w3.org/Graphics/SVG/1.1/DTD/svg11.dtd">
<svg width="100px" height="100px" viewBox="0 0 192 199" version="1.1" xmlns="http://www.w3.org/2000/svg" xmlns:xlink="http://www.w3.org/1999/xlink" xml:space="preserve" xmlns:serif="http://www.serif.com/" style="fill-rule:evenodd;clip-rule:evenodd;stroke-linejoin:round;stroke-miterlimit:2;">
    <g transform="matrix(1,0,0,1,-3589.23,-2659.04)">
        <g transform="matrix(2.66667,0,0,2.66667,3589.23,2835.05)">
            <g>
                <path d="M0,-57.507C0,-57.507 14.105,-66.006 36.891,-66.006C59.677,-66.006 71.793,-56.964 71.793,-56.964C71.793,-56.964 71.431,-29.477 61.304,-12.297C51.177,4.882 35.806,8.499 35.806,8.499C35.806,8.499 20.604,2.842 11.755,-10.127C1.266,-25.499 0.422,-46.838 0,-57.507Z" style="fill:rgb(255,255,255);fill-opacity:0.3;fill-rule:nonzero;stroke:rgb(255,255,255);stroke-opacity:0.84;stroke-width:1.5px;"/>
            </g>
        </g>
        <g transform="matrix(2.66667,0,0,2.66667,3395.88,2567.18)">
            <g opacity="0.42">
                <g transform="matrix(1,0,0,1,77.8891,96.1392)">
                    <path d="M0,-48.881C0,-48.881 11.99,-56.105 31.357,-56.105C50.725,-56.105 61.024,-48.42 61.024,-48.42C61.024,-48.42 60.717,-25.055 52.109,-10.453C43.501,4.15 30.435,7.224 30.435,7.224C30.435,7.224 17.513,2.416 9.991,-8.608C1.076,-21.674 0,-48.881 0,-48.881" style="fill:rgb(255,255,255);fill-rule:nonzero;"/>
                </g>
            </g>
        </g>
        <g transform="matrix(2.66667,0,0,2.66667,3395.88,2567.18)">
            <g opacity="0.5">
                <g transform="matrix(1,0,0,1,82.4659,92.4723)">
                    <path d="M0,-41.548C0,-41.548 10.191,-47.689 26.654,-47.689C43.116,-47.689 51.87,-41.156 51.87,-41.156C51.87,-41.156 51.609,-21.296 44.292,-8.884C36.976,3.528 25.87,6.141 25.87,6.141C25.87,6.141 14.886,2.054 8.493,-7.316C0.915,-18.422 0,-41.548 0,-41.548" style="fill:rgb(255,255,255);fill-rule:nonzero;"/>
                </g>
            </g>
        </g>
        <g transform="matrix(2.66667,0,0,2.66667,3395.88,2567.18)">
            <g opacity="0.6">
                <g transform="matrix(1,0,0,1,86.3562,89.3564)">
                    <path d="M0,-35.316C0,-35.316 8.662,-40.536 22.656,-40.536C36.649,-40.536 44.09,-34.983 44.09,-34.983C44.09,-34.983 43.868,-18.102 37.648,-7.552C31.429,2.999 21.989,5.22 21.989,5.22C21.989,5.22 12.653,1.746 7.219,-6.219C0.777,-15.659 0,-35.316 0,-35.316" style="fill:rgb(255,255,255);fill-rule:nonzero;"/>
                </g>
            </g>
        </g>
        <g transform="matrix(2.66667,0,0,2.66667,3395.88,2567.18)">
            <g opacity="0.72">
                <g transform="matrix(1,0,0,1,89.6629,86.7081)">
                    <path d="M0,-30.019C0,-30.019 7.363,-34.456 19.257,-34.456C31.152,-34.456 37.476,-29.736 37.476,-29.736C37.476,-29.736 37.288,-15.387 32.001,-6.419C26.715,2.549 18.691,4.437 18.691,4.437C18.691,4.437 10.755,1.483 6.136,-5.287C0.661,-13.31 0,-30.019 0,-30.019" style="fill:rgb(255,255,255);fill-rule:nonzero;"/>
                </g>
            </g>
        </g>
        <g transform="matrix(2.66667,0,0,2.66667,3642.48,2792.4)">
            <g>
                <path d="M0,-25.516C0,-25.516 6.259,-29.287 16.369,-29.287C26.479,-29.287 31.855,-25.275 31.855,-25.275C31.855,-25.275 31.694,-13.079 27.201,-5.456C22.708,2.166 15.887,3.771 15.887,3.771C15.887,3.771 9.142,1.261 5.216,-4.493C0.562,-11.314 0,-25.516 0,-25.516" style="fill:rgb(255,255,255);fill-rule:nonzero;"/>
            </g>
        </g>
        <g transform="matrix(2.66667,0,0,2.66667,3648.85,2787.29)">
            <g>
                <path d="M0,-21.688C0,-21.688 5.32,-24.894 13.913,-24.894C22.507,-24.894 27.077,-21.483 27.077,-21.483C27.077,-21.483 26.94,-11.116 23.121,-4.637C19.301,1.842 13.504,3.206 13.504,3.206C13.504,3.206 7.771,1.073 4.433,-3.819C0.477,-9.616 0,-21.688 0,-21.688" style="fill:rgb(255,255,255);fill-rule:nonzero;"/>
            </g>
        </g>
        <g transform="matrix(2.66667,0,0,2.66667,3654.26,2782.96)">
            <g>
                <path d="M0,-18.435C0,-18.435 4.522,-21.16 11.826,-21.16C19.131,-21.16 23.015,-18.261 23.015,-18.261C23.015,-18.261 22.899,-9.449 19.653,-3.942C16.406,1.566 11.479,2.725 11.479,2.725C11.479,2.725 6.605,0.911 3.768,-3.246C0.406,-8.174 0,-18.435 0,-18.435" style="fill:rgb(255,255,255);fill-rule:nonzero;"/>
            </g>
        </g>
        <g transform="matrix(2.66667,0,0,2.66667,3658.87,2779.27)">
            <path d="M0,-15.67C0,-15.67 3.844,-17.986 10.052,-17.986C16.261,-17.986 19.563,-15.522 19.563,-15.522C19.563,-15.522 19.464,-8.032 16.705,-3.351C13.945,1.33 9.757,2.316 9.757,2.316C9.757,2.316 5.614,0.774 3.203,-2.759C0.345,-6.948 0,-15.67 0,-15.67" style="fill:rgb(255,255,255);fill-rule:nonzero;"/>
        </g>
        <g transform="matrix(2.66667,0,0,2.66667,3662.78,2776.13)">
            <path d="M0,-13.319C0,-13.319 3.267,-15.288 8.545,-15.288C13.822,-15.288 16.628,-13.193 16.628,-13.193C16.628,-13.193 16.545,-6.827 14.199,-2.848C11.854,1.131 8.293,1.969 8.293,1.969C8.293,1.969 4.772,0.659 2.723,-2.345C0.293,-5.905 0,-13.319 0,-13.319" style="fill:rgb(255,255,255);fill-rule:nonzero;"/>
        </g>
    </g>
</svg>
